<?xml version="1.0" standalone="no"?>
<!DOCTYPE svg PUBLIC "-//W3C//DTD SVG 20010904//EN"
 "http://www.w3.org/TR/2001/REC-SVG-20010904/DTD/svg10.dtd">
<svg version="1.0" xmlns="http://www.w3.org/2000/svg"
 width="320.000000pt" height="320.000000pt" viewBox="0 0 320.000000 320.000000"
 preserveAspectRatio="xMidYMid meet">
<metadata>
Created by potrace 1.11, written by Peter Selinger 2001-2013
</metadata>
<g transform="translate(0.000000,320.000000) scale(0.100000,-0.100000)"
fill="#000000" stroke="none">
<path d="M160 3160 l0 -40 -40 0 -40 0 0 -40 0 -40 -40 0 -40 0 0 -1440 0
-1440 40 0 40 0 0 -40 0 -40 40 0 40 0 0 -40 0 -40 1440 0 1440 0 0 40 0 40
40 0 40 0 0 40 0 40 40 0 40 0 0 1440 0 1440 -40 0 -40 0 0 40 0 40 -40 0 -40
0 0 40 0 40 -1440 0 -1440 0 0 -40z m2640 -320 l0 -40 40 0 40 0 0 -1200 0
-1200 -40 0 -40 0 0 -40 0 -40 -1200 0 -1200 0 0 40 0 40 -40 0 -40 0 0 1200
0 1200 40 0 40 0 0 40 0 40 1200 0 1200 0 0 -40z"/>
<path d="M480 2080 l0 -640 280 0 280 0 0 120 0 120 40 0 40 0 0 40 0 40 -160
0 -160 0 0 80 0 80 200 0 200 0 0 160 0 160 -200 0 -200 0 0 80 0 80 320 0
320 0 0 160 0 160 -480 0 -480 0 0 -640z"/>
<path d="M1920 2680 l0 -40 -40 0 -40 0 0 -40 0 -40 -40 0 -40 0 0 -360 0
-360 120 0 120 0 0 -40 0 -40 40 0 40 0 0 -40 0 -40 40 0 40 0 0 -120 0 -120
200 0 200 0 0 40 0 40 40 0 40 0 0 40 0 40 40 0 40 0 0 200 0 200 -160 0 -160
0 0 -120 0 -120 -160 0 -160 0 0 320 0 320 160 0 160 0 0 -120 0 -120 160 0
160 0 0 200 0 200 -40 0 -40 0 0 40 0 40 -40 0 -40 0 0 40 0 40 -320 0 -320 0
0 -40z"/>
<path d="M1280 1720 l0 -40 -40 0 -40 0 0 -40 0 -40 -40 0 -40 0 0 -160 0
-160 160 0 160 0 0 80 0 80 120 0 120 0 0 -80 0 -80 -40 0 -40 0 0 -40 0 -40
-40 0 -40 0 0 -40 0 -40 -40 0 -40 0 0 -40 0 -40 -40 0 -40 0 0 -40 0 -40 -40
0 -40 0 0 -40 0 -40 -40 0 -40 0 0 -40 0 -40 -40 0 -40 0 0 -160 0 -160 480 0
480 0 0 160 0 160 -240 0 -240 0 0 40 0 40 40 0 40 0 0 40 0 40 40 0 40 0 0
40 0 40 40 0 40 0 0 40 0 40 40 0 40 0 0 40 0 40 40 0 40 0 0 40 0 40 40 0 40
0 0 160 0 160 -40 0 -40 0 0 40 0 40 -40 0 -40 0 0 40 0 40 -320 0 -320 0 0
-40z"/>
</g>
</svg>
