<?xml version="1.0" standalone="no"?>
<!DOCTYPE svg PUBLIC "-//W3C//DTD SVG 20010904//EN"
 "http://www.w3.org/TR/2001/REC-SVG-20010904/DTD/svg10.dtd">
<svg version="1.0" xmlns="http://www.w3.org/2000/svg"
 width="80.000000pt" height="80.000000pt" viewBox="0 0 80.000000 80.000000"
 preserveAspectRatio="xMidYMid meet">
<metadata>
Created by potrace 1.11, written by Peter Selinger 2001-2013
</metadata>
<g transform="translate(0.000000,80.000000) scale(0.100000,-0.100000)"
fill="#000000" stroke="none">
<path d="M23 775 c-23 -24 -23 -25 -23 -375 l0 -351 25 -24 24 -25 351 0 351
0 24 25 25 24 0 351 0 351 -25 24 -24 25 -353 -1 -353 0 -22 -24z m683 -69
c21 -21 21 -591 0 -612 -21 -21 -591 -21 -612 0 -19 20 -21 589 -1 611 18 21
592 22 613 1z"/>
<path d="M120 520 l0 -160 70 0 70 0 0 30 c0 17 5 30 10 30 6 0 10 5 10 10 0
6 -18 10 -40 10 -33 0 -40 3 -40 20 0 17 7 20 50 20 l50 0 0 40 0 40 -50 0
c-43 0 -50 3 -50 20 0 18 7 20 80 20 l80 0 0 40 0 40 -120 0 -120 0 0 -160z"/>
<path d="M463 655 c-20 -21 -23 -35 -23 -110 0 -84 0 -85 25 -85 33 0 75 -42
75 -75 0 -23 3 -25 45 -25 63 0 95 32 95 95 l0 45 -40 0 c-38 0 -40 -2 -40
-30 0 -28 -2 -30 -40 -30 l-40 0 0 80 0 80 40 0 c38 0 40 -2 40 -30 0 -28 2
-30 40 -30 l40 0 0 45 c0 35 -6 52 -25 70 -21 22 -32 25 -97 24 -64 0 -76 -3
-95 -24z"/>
<path d="M303 415 c-15 -16 -23 -37 -23 -60 0 -34 1 -35 40 -35 33 0 40 3 40
20 0 16 7 20 30 20 47 0 37 -24 -40 -100 -61 -60 -70 -74 -70 -105 l0 -35 120
0 120 0 0 40 0 40 -60 0 c-33 0 -60 2 -60 6 0 3 27 32 60 64 69 68 78 103 35
145 -21 22 -32 25 -97 24 -64 0 -76 -3 -95 -24z"/>
</g>
</svg>
